<svg xmlns="http://www.w3.org/2000/svg" viewBox="0 0 181.77 181.77"><defs><style>.cls-1{fill:#fff;}.cls-2{fill:#c1272d;}.cls-3{fill:none;stroke:#c1272d;stroke-miterlimit:10;stroke-width:7.57px;}</style></defs><title>pl-circle</title><g id="Layer_2" data-name="Layer 2"><g id="Layer_1-2" data-name="Layer 1"><circle class="cls-1" cx="90.89" cy="90.89" r="90.89"/><path class="cls-2" d="M43.88,108.75,56.4,79.16,41.57,72.88a16.12,16.12,0,0,1-8.51-21l3.14-7.41a15.44,15.44,0,0,1,8.75-8.55,15.39,15.39,0,0,1,12.26,0L86.79,48.48,58.63,115Zm25-59.1-7.41-3.14a7.81,7.81,0,0,0-6.13,0A7.62,7.62,0,0,0,51,50.71l-3.14,7.41A8.16,8.16,0,0,0,52.1,68.68l7.41,3.14Z"/><path class="cls-2" d="M107.09,135.51,135.25,69,150,75.24l-25,59.1,22.17,9.39L144,151.14Z"/><line class="cls-3" x1="70.6" y1="156.66" x2="126.29" y2="25.11"/></g></g></svg>