<svg xmlns="http://www.w3.org/2000/svg" viewBox="0 0 600.8 103.63"><defs><style>.cls-1{fill:#fff;}.cls-2{fill:#c1272d;}.cls-3{fill:none;stroke:#000;stroke-miterlimit:10;stroke-width:2px;}</style></defs><title>puck-life-white</title><g id="Layer_2" data-name="Layer 2"><g id="Layer_1-2" data-name="Layer 1"><path class="cls-1" d="M10.89,4.28,4.3,10.88a14.65,14.65,0,0,0,0,20.72L59.11,86.45a41.05,41.05,0,0,0,29,12l504.46.15V71.33l-477.15-.14a41.05,41.05,0,0,1-29-12L31.6,4.29A14.65,14.65,0,0,0,10.89,4.28Z"/><rect class="cls-2" x="569.17" y="72.01" width="37.31" height="25.94" rx="5.1" ry="5.1" transform="translate(502.67 672.78) rotate(-89.98)"/><rect class="cls-2" x="552.82" y="81.07" width="27.3" height="7.81" transform="matrix(0, -1, 1, 0, 481.34, 651.42)"/><rect class="cls-2" x="540.54" y="81.06" width="27.3" height="7.81" transform="translate(469.06 639.13) rotate(-89.98)"/><rect class="cls-2" x="528.25" y="81.06" width="27.3" height="7.81" transform="translate(456.78 626.84) rotate(-89.98)"/><rect class="cls-2" x="515.97" y="81.06" width="27.3" height="7.81" transform="translate(444.5 614.55) rotate(-89.98)"/><rect class="cls-2" x="503.68" y="81.05" width="27.3" height="7.81" transform="translate(432.22 602.26) rotate(-89.98)"/><polygon class="cls-2" points="35.96 8.65 89.13 61.62 59.11 86.45 4.29 31.59 35.96 8.65"/><path class="cls-1" d="M123.18,58.29v-30h13.34a6.71,6.71,0,0,1,6.66,6.66v3.34a6.7,6.7,0,0,1-6.66,6.66h-6.69V58.29Zm6.66-16.66h3.34a3.39,3.39,0,0,0,3.34-3.34V34.94a3.16,3.16,0,0,0-1-2.34,3.24,3.24,0,0,0-2.35-1h-3.34Z"/><path class="cls-1" d="M185,34.94V58.29h-6.66V54.94Q178,58.29,175,58.29H171.7A6.7,6.7,0,0,1,165,51.63V34.94h6.66V51.63a3.34,3.34,0,0,0,6.69,0V34.94Z"/><path class="cls-1" d="M223.55,41.63h-3.31q-.39-3.34-3.34-3.34a3.36,3.36,0,0,0-3.34,3.34v10a3.35,3.35,0,0,0,3.34,3.31q3,0,3.34-3.31h3.31q-.41,6.66-6.66,6.66h-3.34a6.7,6.7,0,0,1-6.66-6.66v-10a6.71,6.71,0,0,1,6.66-6.69h3.34Q223.18,34.94,223.55,41.63Z"/><path class="cls-1" d="M245.44,58.29v-30h6.66v15l10-8.34h6.69l-14,11.69,14,11.66H262.1l-10-8.34v8.34Z"/><path class="cls-2" d="M366.52,58.29v-30h6.66V54.94h10v3.34Z"/><path class="cls-2" d="M405.06,31.63V28.29h6.66v3.34Zm0,26.66V34.94h6.66V58.29Z"/><path class="cls-2" d="M436.95,58.29v-20H433.6V34.94h3.34v-.3a6.4,6.4,0,0,1,6.36-6.36h7v3.34h-3.62a3.05,3.05,0,0,0-3,3v.3h3.34v3.34H443.6v20Z"/><path class="cls-2" d="M488.8,48.29H475.46v3.34a3.35,3.35,0,0,0,3.34,3.31h3.34q3.31,0,3.31-3.31h3.34q-.78,6.66-6.66,6.66h-6.69a6.7,6.7,0,0,1-6.66-6.66v-10a6.71,6.71,0,0,1,6.66-6.69h6.69a6.38,6.38,0,0,1,4.7,2,6.46,6.46,0,0,1,2,4.71Zm-13.34-3.34h6.69V41.63a3.34,3.34,0,0,0-6.69,0Z"/><circle class="cls-1" cx="315.17" cy="40.92" r="24"/><path d="M302.76,45.64l3.31-7.81-3.92-1.66a4.26,4.26,0,0,1-2.25-5.55l.83-2a4.27,4.27,0,0,1,5.55-2.25l7.81,3.31-7.44,17.56ZM309.37,30l-2-.83a2.06,2.06,0,0,0-1.62,0,2,2,0,0,0-1.16,1.12l-.83,2a2.15,2.15,0,0,0,1.13,2.79l2,.83Z"/><path d="M319.45,52.7l7.44-17.56,3.9,1.65-6.61,15.61L330,54.87l-.83,2Z"/><line class="cls-3" x1="309.81" y1="58.29" x2="324.52" y2="23.55"/></g></g></svg>